<?xml version="1.0" encoding="UTF-8" standalone="no"?>
<!DOCTYPE svg PUBLIC "-//W3C//DTD SVG 1.1//EN"
 "http://www.w3.org/Graphics/SVG/1.1/DTD/svg11.dtd">
<!-- Generated by graphviz version 2.43.0 (0)
 -->
<!-- Title: DiskGraph Pages: 1 -->
<svg width="488pt" height="273pt"
 viewBox="0.00 0.00 488.00 273.22" xmlns="http://www.w3.org/2000/svg" xmlns:xlink="http://www.w3.org/1999/xlink">
<g id="graph0" class="graph" transform="scale(1 1) rotate(0) translate(4 269.22)">
<title>DiskGraph</title>
<polygon fill="white" stroke="transparent" points="-4,4 -4,-269.22 484,-269.22 484,4 -4,4"/>
<g id="clust1" class="cluster">
<title>cluster_graph</title>
<polygon fill="none" stroke="white" points="8,-8 8,-257.22 472,-257.22 472,-8 8,-8"/>
</g>
<!-- 7501865938413856833 -->
<g id="node1" class="node">
<title>7501865938413856833</title>
<ellipse fill="lightgrey" stroke="black" cx="338" cy="-222.35" rx="87.86" ry="26.74"/>
<text text-anchor="middle" x="338" y="-226.15" font-family="Times,serif" font-size="14.00">/\ waitSet = {}</text>
<text text-anchor="middle" x="338" y="-211.15" font-family="Times,serif" font-size="14.00">/\ buf = &lt;&lt;&gt;&gt;</text>
</g>
<!-- &#45;4333803192128455660 -->
<g id="node2" class="node">
<title>&#45;4333803192128455660</title>
<ellipse fill="none" stroke="black" cx="338" cy="-132.61" rx="98.99" ry="26.74"/>
<text text-anchor="middle" x="338" y="-136.41" font-family="Times,serif" font-size="14.00">/\ waitSet = {}</text>
<text text-anchor="middle" x="338" y="-121.41" font-family="Times,serif" font-size="14.00">/\ buf = &lt;&lt;p1&gt;&gt;</text>
</g>
<!-- 7501865938413856833&#45;&gt;&#45;4333803192128455660 -->
<g id="edge1" class="edge">
<title>7501865938413856833&#45;&gt;&#45;4333803192128455660</title>
<path fill="none" stroke="black" d="M329.71,-195.5C329.04,-187.45 328.84,-178.42 329.12,-169.8"/>
<polygon fill="black" stroke="black" points="332.63,-169.76 329.7,-159.58 325.64,-169.37 332.63,-169.76"/>
</g>
<!-- &#45;6068293002836269830 -->
<g id="node3" class="node">
<title>&#45;6068293002836269830</title>
<ellipse fill="none" stroke="black" cx="115" cy="-132.61" rx="98.99" ry="26.74"/>
<text text-anchor="middle" x="115" y="-136.41" font-family="Times,serif" font-size="14.00">/\ waitSet = {c1}</text>
<text text-anchor="middle" x="115" y="-121.41" font-family="Times,serif" font-size="14.00">/\ buf = &lt;&lt;&gt;&gt;</text>
</g>
<!-- 7501865938413856833&#45;&gt;&#45;6068293002836269830 -->
<g id="edge2" class="edge">
<title>7501865938413856833&#45;&gt;&#45;6068293002836269830</title>
<path fill="none" stroke="black" d="M285.72,-200.78C253.83,-188.23 212.83,-172.1 179.01,-158.8"/>
<polygon fill="black" stroke="black" points="180.26,-155.53 169.68,-155.12 177.7,-162.04 180.26,-155.53"/>
</g>
<!-- &#45;4333803192128455660&#45;&gt;7501865938413856833 -->
<g id="edge4" class="edge">
<title>&#45;4333803192128455660&#45;&gt;7501865938413856833</title>
<path fill="none" stroke="black" d="M346.99,-159.58C347.71,-167.64 347.92,-176.67 347.61,-185.29"/>
<polygon fill="black" stroke="black" points="344.1,-185.3 346.98,-195.5 351.09,-185.74 344.1,-185.3"/>
</g>
<!-- 4309086907582219446 -->
<g id="node4" class="node">
<title>4309086907582219446</title>
<ellipse fill="none" stroke="black" cx="351" cy="-42.87" rx="100.32" ry="26.74"/>
<text text-anchor="middle" x="351" y="-46.67" font-family="Times,serif" font-size="14.00">/\ waitSet = {p1}</text>
<text text-anchor="middle" x="351" y="-31.67" font-family="Times,serif" font-size="14.00">/\ buf = &lt;&lt;p1&gt;&gt;</text>
</g>
<!-- &#45;4333803192128455660&#45;&gt;4309086907582219446 -->
<g id="edge3" class="edge">
<title>&#45;4333803192128455660&#45;&gt;4309086907582219446</title>
<path fill="none" stroke="black" d="M341.83,-105.76C343.04,-97.62 344.39,-88.48 345.68,-79.77"/>
<polygon fill="black" stroke="black" points="349.15,-80.24 347.15,-69.84 342.22,-79.22 349.15,-80.24"/>
</g>
<!-- &#45;6068293002836269830&#45;&gt;&#45;4333803192128455660 -->
<g id="edge5" class="edge">
<title>&#45;6068293002836269830&#45;&gt;&#45;4333803192128455660</title>
<path fill="none" stroke="black" d="M214.3,-132.61C219.18,-132.61 224.06,-132.61 228.94,-132.61"/>
<polygon fill="black" stroke="black" points="228.95,-136.11 238.95,-132.61 228.95,-129.11 228.95,-136.11"/>
</g>
<!-- 4309086907582219446&#45;&gt;7501865938413856833 -->
<g id="edge6" class="edge">
<title>4309086907582219446&#45;&gt;7501865938413856833</title>
<path fill="none" stroke="black" d="M405.52,-65.46C422.55,-75.09 439.38,-88.3 449,-105.74 460.53,-126.66 461.1,-138.89 449,-159.48 439.2,-176.17 423.08,-188.68 406.13,-197.92"/>
<polygon fill="black" stroke="black" points="404.54,-194.81 397.22,-202.46 407.72,-201.04 404.54,-194.81"/>
</g>
</g>
</svg>
