<?xml version="1.0" encoding="UTF-8" standalone="no"?>
<!DOCTYPE svg PUBLIC "-//W3C//DTD SVG 1.1//EN"
 "http://www.w3.org/Graphics/SVG/1.1/DTD/svg11.dtd">
<!-- Generated by graphviz version 12.2.1 (0)
 -->
<!-- Title: DiskGraph Pages: 1 -->
<svg width="765pt" height="773pt"
 viewBox="0.00 0.00 765.00 772.83" xmlns="http://www.w3.org/2000/svg" xmlns:xlink="http://www.w3.org/1999/xlink">
<g id="graph0" class="graph" transform="scale(1 1) rotate(0) translate(4 768.83)">
<title>DiskGraph</title>
<polygon fill="white" stroke="none" points="-4,4 -4,-768.83 761,-768.83 761,4 -4,4"/>
<g id="clust1" class="cluster">
<title>cluster_graph</title>
<polygon fill="none" stroke="white" points="8,-8 8,-756.83 749,-756.83 749,-8 8,-8"/>
</g>
<!-- 7884844815865442736 -->
<g id="node1" class="node">
<title>7884844815865442736</title>
<ellipse fill="lightgrey" stroke="black" cx="490" cy="-718.78" rx="87.15" ry="30.05"/>
<text text-anchor="middle" x="490" y="-722.73" font-family="Times,serif" font-size="14.00">/\ waitSet = {}</text>
<text text-anchor="middle" x="490" y="-705.48" font-family="Times,serif" font-size="14.00">/\ buf = &lt;&lt;&gt;&gt;</text>
</g>
<!-- 5161059930158165280 -->
<g id="node2" class="node">
<title>5161059930158165280</title>
<ellipse fill="none" stroke="black" cx="615" cy="-622.68" rx="98.82" ry="30.05"/>
<text text-anchor="middle" x="615" y="-626.63" font-family="Times,serif" font-size="14.00">/\ waitSet = {}</text>
<text text-anchor="middle" x="615" y="-609.38" font-family="Times,serif" font-size="14.00">/\ buf = &lt;&lt;p1&gt;&gt;</text>
</g>
<!-- 7884844815865442736&#45;&gt;5161059930158165280 -->
<g id="edge1" class="edge">
<title>7884844815865442736&#45;&gt;5161059930158165280</title>
<path fill="none" stroke="black" d="M518.19,-690.06C531.3,-679.55 547.2,-667.49 562.34,-656.55"/>
<polygon fill="black" stroke="black" points="564.31,-659.45 570.41,-650.79 560.24,-653.76 564.31,-659.45"/>
</g>
<!-- &#45;744434659070444972 -->
<g id="node3" class="node">
<title>&#45;744434659070444972</title>
<ellipse fill="none" stroke="black" cx="365" cy="-622.68" rx="98.82" ry="30.05"/>
<text text-anchor="middle" x="365" y="-626.63" font-family="Times,serif" font-size="14.00">/\ waitSet = {c1}</text>
<text text-anchor="middle" x="365" y="-609.38" font-family="Times,serif" font-size="14.00">/\ buf = &lt;&lt;&gt;&gt;</text>
</g>
<!-- 7884844815865442736&#45;&gt;&#45;744434659070444972 -->
<g id="edge2" class="edge">
<title>7884844815865442736&#45;&gt;&#45;744434659070444972</title>
<path fill="none" stroke="black" d="M454.51,-691.07C440.65,-680.63 424.58,-668.53 409.92,-657.5"/>
<polygon fill="black" stroke="black" points="412.31,-654.91 402.22,-651.7 408.1,-660.51 412.31,-654.91"/>
</g>
<!-- 7755474553779047511 -->
<g id="node4" class="node">
<title>7755474553779047511</title>
<ellipse fill="none" stroke="black" cx="142" cy="-622.68" rx="98.82" ry="30.05"/>
<text text-anchor="middle" x="142" y="-626.63" font-family="Times,serif" font-size="14.00">/\ waitSet = {c2}</text>
<text text-anchor="middle" x="142" y="-609.38" font-family="Times,serif" font-size="14.00">/\ buf = &lt;&lt;&gt;&gt;</text>
</g>
<!-- 7884844815865442736&#45;&gt;7755474553779047511 -->
<g id="edge3" class="edge">
<title>7884844815865442736&#45;&gt;7755474553779047511</title>
<path fill="none" stroke="black" d="M422.49,-699.52C366.29,-684.33 286.02,-662.62 225.74,-646.32"/>
<polygon fill="black" stroke="black" points="226.75,-642.97 216.19,-643.74 224.93,-649.73 226.75,-642.97"/>
</g>
<!-- 5161059930158165280&#45;&gt;7884844815865442736 -->
<g id="edge5" class="edge">
<title>5161059930158165280&#45;&gt;7884844815865442736</title>
<path fill="none" stroke="black" d="M586.29,-651.81C572.99,-662.46 556.87,-674.66 541.62,-685.65"/>
<polygon fill="black" stroke="black" points="539.61,-682.79 533.5,-691.44 543.67,-688.49 539.61,-682.79"/>
</g>
<!-- 3517885727436864007 -->
<g id="node5" class="node">
<title>3517885727436864007</title>
<ellipse fill="none" stroke="black" cx="628" cy="-526.57" rx="99.88" ry="30.05"/>
<text text-anchor="middle" x="628" y="-530.52" font-family="Times,serif" font-size="14.00">/\ waitSet = {p1}</text>
<text text-anchor="middle" x="628" y="-513.27" font-family="Times,serif" font-size="14.00">/\ buf = &lt;&lt;p1&gt;&gt;</text>
</g>
<!-- 5161059930158165280&#45;&gt;3517885727436864007 -->
<g id="edge4" class="edge">
<title>5161059930158165280&#45;&gt;3517885727436864007</title>
<path fill="none" stroke="black" d="M619.08,-592.16C620.13,-584.54 621.28,-576.2 622.4,-568.13"/>
<polygon fill="black" stroke="black" points="625.83,-568.87 623.73,-558.48 618.89,-567.91 625.83,-568.87"/>
</g>
<!-- &#45;744434659070444972&#45;&gt;5161059930158165280 -->
<g id="edge6" class="edge">
<title>&#45;744434659070444972&#45;&gt;5161059930158165280</title>
<path fill="none" stroke="black" d="M464.12,-622.68C477.55,-622.68 490.98,-622.68 504.41,-622.68"/>
<polygon fill="black" stroke="black" points="504.18,-626.18 514.18,-622.68 504.18,-619.18 504.18,-626.18"/>
</g>
<!-- 6941647630291152506 -->
<g id="node6" class="node">
<title>6941647630291152506</title>
<ellipse fill="none" stroke="black" cx="254" cy="-526.57" rx="116.85" ry="30.05"/>
<text text-anchor="middle" x="254" y="-530.52" font-family="Times,serif" font-size="14.00">/\ waitSet = {c1, c2}</text>
<text text-anchor="middle" x="254" y="-513.27" font-family="Times,serif" font-size="14.00">/\ buf = &lt;&lt;&gt;&gt;</text>
</g>
<!-- &#45;744434659070444972&#45;&gt;6941647630291152506 -->
<g id="edge7" class="edge">
<title>&#45;744434659070444972&#45;&gt;6941647630291152506</title>
<path fill="none" stroke="black" d="M332.3,-593.95C320.87,-584.27 307.89,-573.26 295.82,-563.03"/>
<polygon fill="black" stroke="black" points="298.28,-560.53 288.39,-556.73 293.76,-565.87 298.28,-560.53"/>
</g>
<!-- 7755474553779047511&#45;&gt;5161059930158165280 -->
<g id="edge8" class="edge">
<title>7755474553779047511&#45;&gt;5161059930158165280</title>
<path fill="none" stroke="black" d="M195.58,-648.33C217.1,-657.3 242.47,-666.25 266.5,-670.73 361.75,-688.47 389.11,-687.73 484.5,-670.73 506.06,-666.89 528.72,-659.73 549,-652.1"/>
<polygon fill="black" stroke="black" points="550.22,-655.38 558.27,-648.5 547.68,-648.86 550.22,-655.38"/>
</g>
<!-- 7755474553779047511&#45;&gt;6941647630291152506 -->
<g id="edge9" class="edge">
<title>7755474553779047511&#45;&gt;6941647630291152506</title>
<path fill="none" stroke="black" d="M175,-593.95C186.52,-584.27 199.63,-573.26 211.8,-563.03"/>
<polygon fill="black" stroke="black" points="213.9,-565.84 219.3,-556.72 209.4,-560.48 213.9,-565.84"/>
</g>
<!-- 3517885727436864007&#45;&gt;7884844815865442736 -->
<g id="edge10" class="edge">
<title>3517885727436864007&#45;&gt;7884844815865442736</title>
<path fill="none" stroke="black" d="M684.13,-551.8C700.63,-561.88 716.73,-575.35 726,-592.62 738.63,-616.16 742.19,-631.48 726,-652.73 708.04,-676.31 639.57,-693.51 580.97,-704.28"/>
<polygon fill="black" stroke="black" points="580.5,-700.81 571.27,-706.02 581.73,-707.7 580.5,-700.81"/>
</g>
<!-- &#45;7353697264800056943 -->
<g id="node7" class="node">
<title>&#45;7353697264800056943</title>
<ellipse fill="none" stroke="black" cx="156" cy="-430.47" rx="98.82" ry="30.05"/>
<text text-anchor="middle" x="156" y="-434.42" font-family="Times,serif" font-size="14.00">/\ waitSet = {c2}</text>
<text text-anchor="middle" x="156" y="-417.17" font-family="Times,serif" font-size="14.00">/\ buf = &lt;&lt;p1&gt;&gt;</text>
</g>
<!-- 6941647630291152506&#45;&gt;&#45;7353697264800056943 -->
<g id="edge11" class="edge">
<title>6941647630291152506&#45;&gt;&#45;7353697264800056943</title>
<path fill="none" stroke="black" d="M224.33,-497.08C214.55,-487.69 203.55,-477.13 193.28,-467.26"/>
<polygon fill="black" stroke="black" points="195.96,-464.99 186.32,-460.59 191.11,-470.04 195.96,-464.99"/>
</g>
<!-- &#45;3647251740096735142 -->
<g id="node8" class="node">
<title>&#45;3647251740096735142</title>
<ellipse fill="none" stroke="black" cx="379" cy="-430.47" rx="98.82" ry="30.05"/>
<text text-anchor="middle" x="379" y="-434.42" font-family="Times,serif" font-size="14.00">/\ waitSet = {c1}</text>
<text text-anchor="middle" x="379" y="-417.17" font-family="Times,serif" font-size="14.00">/\ buf = &lt;&lt;p1&gt;&gt;</text>
</g>
<!-- 6941647630291152506&#45;&gt;&#45;3647251740096735142 -->
<g id="edge12" class="edge">
<title>6941647630291152506&#45;&gt;&#45;3647251740096735142</title>
<path fill="none" stroke="black" d="M290.83,-497.85C304.3,-487.71 319.69,-476.12 333.81,-465.49"/>
<polygon fill="black" stroke="black" points="335.77,-468.39 341.66,-459.58 331.56,-462.8 335.77,-468.39"/>
</g>
<!-- &#45;7353697264800056943&#45;&gt;7884844815865442736 -->
<g id="edge14" class="edge">
<title>&#45;7353697264800056943&#45;&gt;7884844815865442736</title>
<path fill="none" stroke="black" d="M120.14,-458.86C66.6,-502.99 -22.51,-591.1 31,-652.73 76.65,-705.31 270.31,-716.53 391.02,-718.28"/>
<polygon fill="black" stroke="black" points="390.91,-721.78 400.96,-718.4 391,-714.78 390.91,-721.78"/>
</g>
<!-- &#45;3141117090933613572 -->
<g id="node9" class="node">
<title>&#45;3141117090933613572</title>
<ellipse fill="none" stroke="black" cx="143" cy="-334.36" rx="117.91" ry="30.05"/>
<text text-anchor="middle" x="143" y="-338.31" font-family="Times,serif" font-size="14.00">/\ waitSet = {p1, c2}</text>
<text text-anchor="middle" x="143" y="-321.06" font-family="Times,serif" font-size="14.00">/\ buf = &lt;&lt;p1&gt;&gt;</text>
</g>
<!-- &#45;7353697264800056943&#45;&gt;&#45;3141117090933613572 -->
<g id="edge13" class="edge">
<title>&#45;7353697264800056943&#45;&gt;&#45;3141117090933613572</title>
<path fill="none" stroke="black" d="M151.92,-399.95C150.87,-392.33 149.72,-383.99 148.6,-375.92"/>
<polygon fill="black" stroke="black" points="152.11,-375.7 147.27,-366.28 145.17,-376.66 152.11,-375.7"/>
</g>
<!-- &#45;3647251740096735142&#45;&gt;7884844815865442736 -->
<g id="edge16" class="edge">
<title>&#45;3647251740096735142&#45;&gt;7884844815865442736</title>
<path fill="none" stroke="black" d="M401.55,-460.14C424.48,-490.98 458.97,-542.36 476,-592.62 485.23,-619.89 488.67,-652.21 489.84,-677.18"/>
<polygon fill="black" stroke="black" points="486.33,-677.05 490.18,-686.92 493.33,-676.81 486.33,-677.05"/>
</g>
<!-- &#45;9153370303065146825 -->
<g id="node10" class="node">
<title>&#45;9153370303065146825</title>
<ellipse fill="none" stroke="black" cx="404" cy="-334.36" rx="117.91" ry="30.05"/>
<text text-anchor="middle" x="404" y="-338.31" font-family="Times,serif" font-size="14.00">/\ waitSet = {p1, c1}</text>
<text text-anchor="middle" x="404" y="-321.06" font-family="Times,serif" font-size="14.00">/\ buf = &lt;&lt;p1&gt;&gt;</text>
</g>
<!-- &#45;3647251740096735142&#45;&gt;&#45;9153370303065146825 -->
<g id="edge15" class="edge">
<title>&#45;3647251740096735142&#45;&gt;&#45;9153370303065146825</title>
<path fill="none" stroke="black" d="M386.77,-400.21C388.84,-392.42 391.11,-383.87 393.31,-375.6"/>
<polygon fill="black" stroke="black" points="396.66,-376.63 395.84,-366.07 389.89,-374.83 396.66,-376.63"/>
</g>
<!-- &#45;3141117090933613572&#45;&gt;7755474553779047511 -->
<g id="edge17" class="edge">
<title>&#45;3141117090933613572&#45;&gt;7755474553779047511</title>
<path fill="none" stroke="black" d="M84.81,-360.87C69.04,-370.8 53.88,-383.86 45,-400.42 32.37,-423.96 37.85,-434.78 45,-460.52 57.83,-506.71 87.85,-552.93 111.12,-583.94"/>
<polygon fill="black" stroke="black" points="108.32,-586.05 117.18,-591.86 113.88,-581.8 108.32,-586.05"/>
</g>
<!-- 6827051445998667140 -->
<g id="node11" class="node">
<title>6827051445998667140</title>
<ellipse fill="none" stroke="black" cx="212" cy="-238.26" rx="99.88" ry="30.05"/>
<text text-anchor="middle" x="212" y="-242.21" font-family="Times,serif" font-size="14.00">/\ waitSet = {p1}</text>
<text text-anchor="middle" x="212" y="-224.96" font-family="Times,serif" font-size="14.00">/\ buf = &lt;&lt;&gt;&gt;</text>
</g>
<!-- &#45;3141117090933613572&#45;&gt;6827051445998667140 -->
<g id="edge18" class="edge">
<title>&#45;3141117090933613572&#45;&gt;6827051445998667140</title>
<path fill="none" stroke="black" d="M164.27,-304.36C170.55,-295.78 177.54,-286.26 184.17,-277.21"/>
<polygon fill="black" stroke="black" points="186.94,-279.36 190.03,-269.23 181.29,-275.22 186.94,-279.36"/>
</g>
<!-- &#45;9153370303065146825&#45;&gt;&#45;744434659070444972 -->
<g id="edge19" class="edge">
<title>&#45;9153370303065146825&#45;&gt;&#45;744434659070444972</title>
<path fill="none" stroke="black" d="M454.77,-361.94C468.78,-371.98 482.25,-384.83 490,-400.42 501.9,-424.33 498.65,-435.25 490,-460.52 473.12,-509.82 434.34,-555.69 404.42,-585.79"/>
<polygon fill="black" stroke="black" points="401.98,-583.28 397.32,-592.79 406.89,-588.26 401.98,-583.28"/>
</g>
<!-- &#45;9153370303065146825&#45;&gt;6827051445998667140 -->
<g id="edge20" class="edge">
<title>&#45;9153370303065146825&#45;&gt;6827051445998667140</title>
<path fill="none" stroke="black" d="M350.52,-307.15C326.53,-295.39 298.1,-281.46 273.25,-269.28"/>
<polygon fill="black" stroke="black" points="275.09,-266.28 264.57,-265.03 272.01,-272.57 275.09,-266.28"/>
</g>
<!-- 525529535153352640 -->
<g id="node12" class="node">
<title>525529535153352640</title>
<ellipse fill="none" stroke="black" cx="208" cy="-142.16" rx="117.91" ry="30.05"/>
<text text-anchor="middle" x="208" y="-146.11" font-family="Times,serif" font-size="14.00">/\ waitSet = {p1, c1}</text>
<text text-anchor="middle" x="208" y="-128.86" font-family="Times,serif" font-size="14.00">/\ buf = &lt;&lt;&gt;&gt;</text>
</g>
<!-- 6827051445998667140&#45;&gt;525529535153352640 -->
<g id="edge21" class="edge">
<title>6827051445998667140&#45;&gt;525529535153352640</title>
<path fill="none" stroke="black" d="M210.75,-207.74C210.43,-200.21 210.08,-191.98 209.74,-183.99"/>
<polygon fill="black" stroke="black" points="213.24,-183.92 209.31,-174.08 206.24,-184.22 213.24,-183.92"/>
</g>
<!-- &#45;7403695922459993661 -->
<g id="node13" class="node">
<title>&#45;7403695922459993661</title>
<ellipse fill="none" stroke="black" cx="469" cy="-142.16" rx="117.91" ry="30.05"/>
<text text-anchor="middle" x="469" y="-146.11" font-family="Times,serif" font-size="14.00">/\ waitSet = {p1, c2}</text>
<text text-anchor="middle" x="469" y="-128.86" font-family="Times,serif" font-size="14.00">/\ buf = &lt;&lt;&gt;&gt;</text>
</g>
<!-- 6827051445998667140&#45;&gt;&#45;7403695922459993661 -->
<g id="edge22" class="edge">
<title>6827051445998667140&#45;&gt;&#45;7403695922459993661</title>
<path fill="none" stroke="black" d="M274.21,-214.48C309.79,-201.45 354.7,-185.01 392.43,-171.19"/>
<polygon fill="black" stroke="black" points="393.26,-174.62 401.45,-167.89 390.85,-168.04 393.26,-174.62"/>
</g>
<!-- &#45;2709305724121163404 -->
<g id="node14" class="node">
<title>&#45;2709305724121163404</title>
<ellipse fill="none" stroke="black" cx="278" cy="-46.05" rx="135.94" ry="30.05"/>
<text text-anchor="middle" x="278" y="-50" font-family="Times,serif" font-size="14.00">/\ waitSet = {p1, c1, c2}</text>
<text text-anchor="middle" x="278" y="-32.75" font-family="Times,serif" font-size="14.00">/\ buf = &lt;&lt;&gt;&gt;</text>
</g>
<!-- 525529535153352640&#45;&gt;&#45;2709305724121163404 -->
<g id="edge23" class="edge">
<title>525529535153352640&#45;&gt;&#45;2709305724121163404</title>
<path fill="none" stroke="black" d="M229.57,-112.15C235.89,-103.66 242.9,-94.23 249.58,-85.26"/>
<polygon fill="black" stroke="black" points="252.31,-87.45 255.47,-77.33 246.7,-83.27 252.31,-87.45"/>
</g>
<!-- &#45;7403695922459993661&#45;&gt;&#45;2709305724121163404 -->
<g id="edge24" class="edge">
<title>&#45;7403695922459993661&#45;&gt;&#45;2709305724121163404</title>
<path fill="none" stroke="black" d="M415.8,-114.94C393.1,-103.76 366.41,-90.61 342.59,-78.88"/>
<polygon fill="black" stroke="black" points="344.45,-75.89 333.94,-74.61 341.36,-82.17 344.45,-75.89"/>
</g>
</g>
</svg>
